HIERARCHY
ROOT Hips
{
	OFFSET 0.000000 0.000000 0.000000
	CHANNELS 6 Xposition Yposition Zposition Zrotation Yrotation Xrotation 
	JOINT LeftUpLeg_virtual
	{
		OFFSET 0.000000 0.000000 0.000000
		CHANNELS 3 Zrotation Yrotation Xrotation
		JOINT LeftUpLeg
		{
			OFFSET 10.205400 -3.823500 0.155100
			CHANNELS 3 Zrotation Yrotation Xrotation
			JOINT LeftLeg
			{
				OFFSET 0.708757 -12.982077 0.567790
				CHANNELS 3 Zrotation Yrotation Xrotation
				JOINT LeftFoot
				{
					OFFSET -0.708756 -10.717838 -2.184338
					CHANNELS 3 Zrotation Yrotation Xrotation
					JOINT LeftToeBase
					{
						OFFSET 0.108149 -7.191104 7.560241
						CHANNELS 3 Zrotation Yrotation Xrotation
						End Site
						{
							OFFSET 0.000000 0.000000 0.000000
						}
					}
				}
			}
		}
	}
	JOINT RightUpLeg_virtual
	{
		OFFSET 0.000000 0.000000 0.000000
		CHANNELS 3 Zrotation Yrotation Xrotation
		JOINT RightUpLeg
		{
			OFFSET -10.205400 -3.823500 0.005500
			CHANNELS 3 Zrotation Yrotation Xrotation
			JOINT RightLeg
			{
				OFFSET -0.708756 -12.982134 0.610632
				CHANNELS 3 Zrotation Yrotation Xrotation
				JOINT RightFoot
				{
					OFFSET 0.708754 -10.717769 -1.945823
					CHANNELS 3 Zrotation Yrotation Xrotation
					JOINT RightToeBase
					{
						OFFSET -0.108140 -7.191069 7.372968
						CHANNELS 3 Zrotation Yrotation Xrotation
						End Site
						{
							OFFSET 0.000000 0.000000 0.000000
						}
					}
				}
			}
		}
	}
	JOINT Spine_virtual
	{
		OFFSET 0.000000 0.000000 0.000000
		CHANNELS 3 Zrotation Yrotation Xrotation
		JOINT Spine
		{
			OFFSET 0.000000 6.876099 0.125700
			CHANNELS 3 Zrotation Yrotation Xrotation
			JOINT Spine1
			{
				OFFSET 0.000000 8.022060 0.146608
				CHANNELS 3 Zrotation Yrotation Xrotation
				JOINT Spine2
				{
					OFFSET 0.000000 9.168068 0.167552
					CHANNELS 3 Zrotation Yrotation Xrotation
					JOINT Neck_virtual
					{
						OFFSET 0.000000 0.000000 0.000000
						CHANNELS 3 Zrotation Yrotation Xrotation
						JOINT Neck
						{
							OFFSET 0.000000 10.314075 0.188496
							CHANNELS 3 Zrotation Yrotation Xrotation
							JOINT Head
							{
								OFFSET 0.000000 7.643700 -2.377400
								CHANNELS 3 Zrotation Yrotation Xrotation
								End Site
								{
									OFFSET 0.000000 0.000000 0.000000
								}
							}
						}
					}
					JOINT LeftShoulder_virtual
					{
						OFFSET 0.000000 0.000000 0.000000
						CHANNELS 3 Zrotation Yrotation Xrotation
						JOINT LeftShoulder
						{
							OFFSET 4.392200 8.824978 0.174984
							CHANNELS 3 Zrotation Yrotation Xrotation
							JOINT LeftArm
							{
								OFFSET 8.771219 -2.981674 -0.026999
								CHANNELS 3 Zrotation Yrotation Xrotation
								JOINT LeftForeArm
								{
									OFFSET 8.512804 0.000000 -0.000000
									CHANNELS 3 Zrotation Yrotation Xrotation
									JOINT LeftHand
									{
										OFFSET 18.484802 0.000000 -0.000000
										CHANNELS 3 Zrotation Yrotation Xrotation
										End Site
										{
											OFFSET 0.000000 0.000000 0.000000
										}
									}
								}
							}
						}
					}
					JOINT RightShoulder_virtual
					{
						OFFSET 0.000000 0.000000 0.000000
						CHANNELS 3 Zrotation Yrotation Xrotation
						JOINT RightShoulder
						{
							OFFSET -4.392200 8.824993 0.141379
							CHANNELS 3 Zrotation Yrotation Xrotation
							JOINT RightArm
							{
								OFFSET -8.771282 -2.981682 -0.094208
								CHANNELS 3 Zrotation Yrotation Xrotation
								JOINT RightForeArm
								{
									OFFSET -8.494598 0.000000 0.000000
									CHANNELS 3 Zrotation Yrotation Xrotation
									JOINT RightHand
									{
										OFFSET -18.483803 0.000000 0.000001
										CHANNELS 3 Zrotation Yrotation Xrotation
										End Site
										{
											OFFSET 0.000000 0.000000 0.000000
										}
									}
								}
							}
						}
					}
				}
			}
		}
	}
}
MOTION
Frames: 5
Frame Time: 0.033333
6.110828 34.526142 26.806980 179.957166 4.832539 -179.484367 -2.098839 -3.969281 8.702483 -9.380057 0.256287 -26.278362 18.334200 6.466993 21.076611 -4.148582 4.200696 8.377333 0.000000 0.000000 0.000000 4.359103 0.000949 7.436425 2.935602 9.084336 -23.878850 -5.741171 2.976466 23.186498 4.678112 4.076432 6.403452 0.000000 0.000000 0.000000 1.424513 -0.043941 -5.538935 -2.066699 -1.861591 -6.907492 -1.232195 -1.685645 11.900605 0.035515 -0.089203 0.020807 -1.754932 0.513500 14.803240 0.693541 -3.009867 14.935780 0.000000 0.000000 0.000000 -0.405574 1.130427 11.745068 -18.958438 -13.970019 2.938817 -43.009015 17.776170 21.241000 -0.535653 -35.143690 3.703263 0.000000 0.000000 0.000000 -3.799779 2.062160 11.432975 23.410398 7.229139 4.655741 44.860167 -15.556335 17.634449 -7.240786 29.343698 -4.301966 0.000000 0.000000 0.000000 
6.127776 34.521088 26.810591 179.886282 4.632936 -179.191502 -2.033934 -3.723715 8.911095 -9.109567 0.833589 -25.914286 18.739447 7.275338 21.371930 -3.845944 4.598937 8.658384 0.000000 0.000000 0.000000 4.805839 -0.012004 7.764444 2.203606 9.747730 -23.561113 -6.293959 4.331024 23.346360 6.304755 5.029693 6.648426 0.000000 0.000000 0.000000 1.293258 0.086834 -5.795610 -2.104599 -2.044585 -6.987216 -1.235746 -1.866385 11.931529 0.044963 -0.069094 -0.068319 -1.716486 0.435730 14.863738 0.758253 -2.975271 14.949828 0.000000 0.000000 0.000000 -0.356396 1.092280 11.817618 -19.035064 -14.006491 2.937504 -43.078560 17.752416 21.191166 -0.579738 -35.204820 3.744106 0.000000 0.000000 0.000000 -3.831202 2.037717 11.443993 23.351261 7.108391 4.652146 44.880907 -15.703843 17.482525 -7.296303 29.507186 -4.325216 0.000000 0.000000 0.000000 
6.132191 34.508289 26.800833 179.916759 4.759898 -179.172910 -2.030063 -3.651950 8.888207 -9.059371 1.003113 -25.834478 18.672303 7.427330 21.276439 -3.986520 4.664981 8.759396 0.000000 0.000000 0.000000 4.818193 0.095829 7.814514 2.212825 9.933011 -23.634878 -6.378092 4.345889 23.319039 6.357999 5.048043 6.657699 0.000000 0.000000 0.000000 1.247773 0.154244 -5.789989 -2.106183 -2.060633 -6.982794 -1.210310 -1.894024 11.889217 0.043067 -0.090216 -0.003966 -1.721270 0.450726 14.733123 0.864155 -2.951520 15.095782 0.000000 0.000000 0.000000 -0.390796 1.131268 11.666457 -19.076476 -14.008894 2.908140 -43.113885 17.743768 21.112067 -0.594989 -35.252966 3.765883 0.000000 0.000000 0.000000 -3.853512 2.026648 11.366391 23.285197 7.071116 4.587270 45.058553 -15.951868 17.293667 -7.381887 29.605004 -4.373984 0.000000 0.000000 0.000000 
6.127637 34.488514 26.784929 179.900394 4.927321 -179.177404 -2.026022 -3.644873 8.879526 -9.029227 1.198072 -25.755078 18.571407 7.622502 21.222581 -4.142402 4.760509 8.839105 0.000000 0.000000 0.000000 4.789230 0.148563 7.859843 2.135144 10.160682 -23.708338 -6.358938 4.377551 23.388356 6.435127 4.985630 6.660896 0.000000 0.000000 0.000000 1.238162 0.183448 -5.606399 -2.209645 -2.075907 -7.162136 -1.160717 -1.942423 11.836019 0.025523 -0.129661 0.003279 -1.744151 0.492642 14.749662 0.953115 -2.971014 15.063747 0.000000 0.000000 0.000000 -0.356975 1.174186 11.622950 -19.098556 -13.901370 2.798444 -43.092060 17.777680 20.958458 -0.655296 -35.467858 3.779901 0.000000 0.000000 0.000000 -3.841313 2.096878 11.377283 23.252785 7.014495 4.533796 45.229789 -16.121009 17.254166 -7.395715 29.888037 -4.457977 0.000000 0.000000 0.000000 
6.122811 34.466969 26.775280 179.894479 5.165422 -179.193469 -2.001946 -3.698173 8.859992 -8.973141 1.403605 -25.675615 18.444866 7.816644 21.271936 -4.272734 4.872003 8.901666 0.000000 0.000000 0.000000 4.795480 0.160542 7.826804 2.066049 10.301545 -23.743264 -6.254694 4.397385 23.595317 6.472023 4.937372 6.608450 0.000000 0.000000 0.000000 1.232395 0.172266 -5.431153 -2.257779 -2.055271 -7.254938 -1.139562 -1.948673 11.712147 0.030871 -0.138072 0.044371 -1.709325 0.455654 14.595264 1.096279 -3.109345 15.116563 0.000000 0.000000 0.000000 -0.355745 1.195828 11.511019 -19.099292 -13.855496 2.754519 -43.044706 17.810155 20.949553 -0.671367 -35.613952 3.768889 0.000000 0.000000 0.000000 -3.814746 2.055470 11.253512 23.245289 6.904650 4.486669 45.484409 -16.227445 17.300504 -7.518447 30.048635 -4.588609 0.000000 0.000000 0.000000 
